<svg xmlns="http://www.w3.org/2000/svg" xmlns:xlink="http://www.w3.org/1999/xlink" width="822" height="693" viewBox="0 0 822 693">
  <defs>
    <clipPath id="clip-path">
      <rect id="Retângulo_1" data-name="Retângulo 1" width="822" height="693" transform="translate(-839.606)"/>
    </clipPath>
    <filter id="Caminho_5" x="20.293" y="-27.379" width="824.226" height="725.312" filterUnits="userSpaceOnUse">
      <feOffset dx="10" input="SourceAlpha"/>
      <feGaussianBlur stdDeviation="7.5" result="blur"/>
      <feFlood flood-opacity="0.161"/>
      <feComposite operator="in" in2="blur"/>
      <feComposite in="SourceGraphic"/>
    </filter>
  </defs>
  <g id="Story_do_Instagram_1" data-name="Story do Instagram – 1" transform="translate(839.606)" clip-path="url(#clip-path)">
    <g transform="matrix(1, 0, 0, 1, -839.61, 0)" filter="url(#Caminho_5)">
      <path id="Caminho_5-2" data-name="Caminho 5" d="M-23.851-10.468c8.1,11.332-52.027,169.178-13.789,156.9C-8.51,134.164-81.6,344.15-47.414,333.386c34.289-23.784-41.622,192.556-6.161,189.4,33.872-22.3-2.28,148.1,48.551,147.052,39.874-5.446,13.373-35.477,152.9-47.931,146.563-13.082,428.814-28.041,452.2-99.121,36.261-110.2-160.342-1.481-160.342-183.37S715.965-5.589,715.965-5.589L21.841-10.468" transform="translate(96.05 5.59)" fill="#3b4d52"/>
    </g>
  </g>
</svg>
