<svg xmlns="http://www.w3.org/2000/svg" xmlns:xlink="http://www.w3.org/1999/xlink" width="1755" height="806" viewBox="0 0 1755 806">
  <defs>
    <clipPath id="clip-path">
      <rect id="Retângulo_1" data-name="Retângulo 1" width="1080" height="877"/>
    </clipPath>
    <filter id="Caminho_5" x="860.876" y="-27.679" width="916.435" height="858.992" filterUnits="userSpaceOnUse">
      <feOffset dx="10" input="SourceAlpha"/>
      <feGaussianBlur stdDeviation="7.5" result="blur"/>
      <feFlood flood-opacity="0.161"/>
      <feComposite operator="in" in2="blur"/>
      <feComposite in="SourceGraphic"/>
    </filter>
    <filter id="Caminho_5-2" x="-5.311" y="-27.679" width="916.435" height="858.992" filterUnits="userSpaceOnUse">
      <feOffset dx="10" input="SourceAlpha"/>
      <feGaussianBlur stdDeviation="7.5" result="blur-2"/>
      <feFlood flood-opacity="0.161"/>
      <feComposite operator="in" in2="blur-2"/>
      <feComposite in="SourceGraphic"/>
    </filter>
    <clipPath id="clip-Story_do_Instagram_1">
      <rect width="1755" height="806"/>
    </clipPath>
  </defs>
  <g id="Story_do_Instagram_1" data-name="Story do Instagram – 1" clip-path="url(#clip-Story_do_Instagram_1)">
    <path id="União_2" data-name="União 2" d="M0,3404.009V0H584.217S473.3,262.332,458.255,479.435c-8.86,173.381,99.212,370.871,113.217,589.953a598.784,598.784,0,0,1-.208,115.01c-5.824,74.756-23.545,135.054-43.283,193.15-21.809,68.98-45.99,134.7-59.622,201.727a667.793,667.793,0,0,0-10.1,109.3q-.1,8.664-.04,17.218c.013.216.026.426.04.642,6.76,120.557,21.514,202.454,38.757,268.543,5.775,21.564,11.782,41.983,17.7,61.138,10.96,34.847,22.153,66.7,32.409,100.533,3.873,12.4,7.16,23.635,9.621,33.625,15.8,59.11,27.952,128,31.017,229.144,7.519,247.255-126.685,277.192-129.505,516.156s94.471,488.434,94.471,488.434Z" transform="translate(377 -117)" fill="none"/>
    <g id="Story_do_Instagram_1-2" data-name="Story do Instagram – 1" transform="translate(875)" clip-path="url(#clip-path)">
      <g transform="matrix(1, 0, 0, 1, -875, 0)" filter="url(#Caminho_5)">
        <path id="Caminho_5-3" data-name="Caminho 5" d="M-1.624,808.4c0-19.248,15.686-42.75,191.187-58.5s458.378-10.4,486.383-95.98c43.42-132.679-136.9-25.143-136.9-244.133S869.811-5.589,869.811-5.589L-1.624-.406" transform="translate(875 0.41)" fill="#3b4d52"/>
      </g>
    </g>
    <g id="Story_do_Instagram_1-3" data-name="Story do Instagram – 1" transform="translate(-203)" clip-path="url(#clip-path)">
      <g transform="matrix(1, 0, 0, 1, 203, 0)" filter="url(#Caminho_5-2)">
        <path id="Caminho_5-4" data-name="Caminho 5" d="M869.811,808.4c0-19.248-15.687-42.75-191.187-58.5s-458.378-10.4-486.383-95.98c-43.42-132.679,136.9-25.143,136.9-244.133S-1.624-5.589-1.624-5.589L869.811-.406" transform="translate(8.81 0.41)" fill="#3b4d52"/>
      </g>
    </g>
  </g>
</svg>
