<svg xmlns="http://www.w3.org/2000/svg" xmlns:xlink="http://www.w3.org/1999/xlink" width="724" height="693" viewBox="0 0 724 693">
  <defs>
    <clipPath id="clip-path">
      <rect id="Retângulo_1" data-name="Retângulo 1" width="724" height="693" transform="translate(-840)"/>
    </clipPath>
    <filter id="Caminho_5" x="16.703" y="-22.5" width="730.668" height="720.433" filterUnits="userSpaceOnUse">
      <feOffset dx="10" input="SourceAlpha"/>
      <feGaussianBlur stdDeviation="7.5" result="blur"/>
      <feFlood flood-opacity="0.161"/>
      <feComposite operator="in" in2="blur"/>
      <feComposite in="SourceGraphic"/>
    </filter>
  </defs>
  <g id="Story_do_Instagram_1" data-name="Story do Instagram – 1" transform="translate(840)" clip-path="url(#clip-path)">
    <g transform="matrix(1, 0, 0, 1, -840, 0)" filter="url(#Caminho_5)">
      <path id="Caminho_5-2" data-name="Caminho 5" d="M-17.967-1.284c7.126,11.332-56.4,159.994-22.749,147.721,25.632-12.273-38.683,197.713-8.6,186.949,30.172-23.784-36.625,192.556-5.422,189.4,29.805-22.3-2.007,148.1,42.722,147.052,35.086-5.446,11.768-35.477,134.543-47.931,128.966-13.082,400.749-28.041,421.329-99.121,31.907-110.2-164.511-1.481-164.511-183.37S622.407-5.589,622.407-5.589l-640.374,4.3" transform="translate(92.46 5.59)" fill="#3b4d52"/>
    </g>
  </g>
</svg>
