<svg xmlns="http://www.w3.org/2000/svg" xmlns:xlink="http://www.w3.org/1999/xlink" width="967" height="683" viewBox="0 0 967 683">
  <defs>
    <clipPath id="clip-path">
      <rect id="Retângulo_1" data-name="Retângulo 1" width="984" height="693" transform="translate(-840)"/>
    </clipPath>
    <filter id="Caminho_5" x="29.571" y="-22.5" width="975.74" height="720.433" filterUnits="userSpaceOnUse">
      <feOffset dx="10" input="SourceAlpha"/>
      <feGaussianBlur stdDeviation="7.5" result="blur"/>
      <feFlood flood-opacity="0.161"/>
      <feComposite operator="in" in2="blur"/>
      <feComposite in="SourceGraphic"/>
    </filter>
    <clipPath id="clip-Story_do_Instagram_1">
      <rect width="967" height="683"/>
    </clipPath>
  </defs>
  <g id="Story_do_Instagram_1" data-name="Story do Instagram – 1" clip-path="url(#clip-Story_do_Instagram_1)">
    <path id="União_2" data-name="União 2" d="M0,3404.009V0H584.217S473.3,262.332,458.255,479.435c-8.86,173.381,99.212,370.871,113.217,589.953a598.784,598.784,0,0,1-.208,115.01c-5.824,74.756-23.545,135.054-43.283,193.15-21.809,68.98-45.99,134.7-59.622,201.727a667.793,667.793,0,0,0-10.1,109.3q-.1,8.664-.04,17.218c.013.216.026.426.04.642,6.76,120.557,21.514,202.454,38.757,268.543,5.775,21.564,11.782,41.983,17.7,61.138,10.96,34.847,22.153,66.7,32.409,100.533,3.873,12.4,7.16,23.635,9.621,33.625,15.8,59.11,27.952,128,31.017,229.144,7.519,247.255-126.685,277.192-129.505,516.156s94.471,488.434,94.471,488.434Z" transform="translate(377 -117)" fill="none"/>
    <g id="Story_do_Instagram_1-2" data-name="Story do Instagram – 1" transform="translate(840)" clip-path="url(#clip-path)">
      <g transform="matrix(1, 0, 0, 1, -840, 0)" filter="url(#Caminho_5)">
        <path id="Caminho_5-2" data-name="Caminho 5" d="M-1.624-1.284c9.7,11.332-77.1,177.383-30.957,147.721s-52.64,197.713-11.7,186.949c38.69-8.905-43.093,205.857-7.378,189.4,36.588-8.143-2.731,148.1,58.136,147.052,47.746-5.446,16.014-35.477,183.09-47.931,175.5-13.082,458.378-8.639,486.383-79.719,43.42-110.2-136.9-20.883-136.9-202.772S869.811-5.589,869.811-5.589L-1.624-1.284" transform="translate(103 5.59)" fill="#3b4d52"/>
      </g>
    </g>
  </g>
</svg>
